<svg width="68" height="50" viewBox="0 0 68 50" fill="none" xmlns="http://www.w3.org/2000/svg">
<path d="M29 47.8622C32.3605 47.7882 55.9641 48.5904 65 47" stroke="black" stroke-width="4" stroke-linecap="square"/>
<circle cx="25.0795" cy="23.5643" r="12.8216" transform="rotate(-0.613829 25.0795 23.5643)" fill="black"/>
<path d="M21.241 12.6263C21.945 12.2624 22.6497 11.813 23.4601 11.7471C23.9276 11.7091 24.253 11.79 24.7124 11.88C25.4459 12.0237 26.1678 12.1794 26.9117 12.2644C27.6009 12.3432 28.2564 12.3579 28.8933 12.6602C29.5287 12.9619 30.2255 13.3695 30.759 13.8277C31.7084 14.6431 32.4212 15.7224 33.0968 16.7591C33.337 17.1278 33.661 17.3742 33.9561 17.6919C34.4835 18.2599 34.8543 18.8986 35.1434 19.6142C35.4281 20.3189 35.7385 20.9852 36.1017 21.6523C36.3488 22.1062 36.3693 22.5775 36.4042 23.0855C36.4479 23.7226 36.5032 24.3611 36.5257 24.9993C36.5572 25.8939 36.3887 26.5805 35.9038 27.3371C35.5232 27.931 35.0526 28.4613 34.7081 29.0784C34.4131 29.6068 34.116 30.1283 33.7809 30.6332C32.8177 32.0842 31.2246 33.2508 29.6311 33.918C28.5655 34.3641 27.6037 34.8801 26.4537 35.077C24.819 35.3568 23.4584 34.8156 22.0495 33.9943C21.1863 33.4911 20.4031 32.8695 19.511 32.4141C18.7205 32.0106 17.8644 31.7291 17.1365 31.2099C15.8309 30.2787 15.1447 28.8278 14.6884 27.3428C14.4854 26.6818 14.23 26.0433 14.0185 25.3866C13.7362 24.5103 13.6315 23.5774 13.5803 22.6615C13.5454 22.0377 13.5701 21.4042 13.6736 20.7873C13.8034 20.0138 14.1711 19.3725 14.5556 18.7011C14.9436 18.0235 15.3087 17.2863 15.7796 16.663C16.5902 15.5899 17.8996 14.9689 19.0474 14.328C19.4552 14.1003 19.8566 13.8318 20.2969 13.6694C21.1435 13.3569 22.0652 13.1847 22.9626 13.1238C24.6801 13.0072 26.4204 13.1251 27.9774 13.9238C29.1511 14.5259 30.0079 15.4338 30.807 16.4651C31.7669 17.7039 32.8195 18.862 33.7865 20.0948C34.2989 20.748 34.5322 21.4404 34.7476 22.2318C34.9911 23.1264 35.1135 23.9154 34.9936 24.8438C34.7709 26.5669 34.0839 28.0453 33.0685 29.4403C32.6237 30.0513 32.1843 30.7033 31.5703 31.159C30.9684 31.6057 30.2778 31.9262 29.6311 32.301C29.1677 32.5696 28.7111 32.914 28.1809 33.036C27.3774 33.2209 26.465 33.1523 25.6452 33.1265C23.9881 33.0743 22.3796 32.1455 21.0884 31.1703C20.4908 30.719 19.8409 30.3144 19.3442 29.7456C18.759 29.0753 18.4031 28.2438 17.9054 27.5124C17.0208 26.2124 15.9746 25.0809 15.4771 23.552C15.0641 22.2826 15.2919 20.797 15.7654 19.569C16.0905 18.726 16.5738 17.7448 17.2269 17.104C18.0446 16.3017 19.2496 15.7533 20.2629 15.2496C21.7792 14.4959 23.4614 14.6904 25.0855 14.9895C25.9791 15.154 26.733 15.4373 27.4798 15.9591C28.2824 16.5199 29.1465 17.0689 29.8629 17.7372C30.3608 18.2017 30.8794 18.7374 31.2028 19.3428C31.6538 20.1873 32.0952 21.1198 32.4296 22.017C32.6752 22.6759 32.864 23.3723 33.0741 24.0438C33.4423 25.2206 33.6594 26.5378 33.3851 27.7583C32.9962 29.4887 31.889 30.8982 30.1314 31.2862C29.2933 31.4712 28.4278 31.4375 27.5788 31.5378C26.646 31.648 25.8199 31.7363 24.882 31.5604C23.9337 31.3826 23.0673 31.048 22.3039 30.4494C21.5001 29.8192 20.762 29.0548 20.0707 28.3039C18.8125 26.9372 18.0558 25.4094 17.6538 23.6057C17.3418 22.2062 17.315 20.9524 17.8856 19.6029C18.1023 19.0902 18.4498 18.6403 18.8269 18.2347C19.5308 17.4776 20.6542 17.1546 21.6085 16.8382C22.5806 16.516 23.6696 16.5169 24.6728 16.6828C25.8628 16.8795 26.9688 17.5184 28.0311 18.0594C29.0555 18.5812 30.0753 19.1986 30.824 20.0891C31.4284 20.8079 32.0047 21.7771 32.1356 22.7209C32.2847 23.7955 32.2883 25.0909 31.8558 26.0905C31.2389 27.516 30.3375 29.06 28.7717 29.5986C27.6772 29.975 26.3853 29.9476 25.2438 29.935C23.9391 29.9205 22.832 29.5706 21.7442 28.841C20.6685 28.1195 19.7156 27.2011 19.0955 26.0565C18.5717 25.09 18.4059 24.1047 18.4255 23.0149C18.4375 22.3463 18.5213 21.6922 18.7704 21.0672C19.0548 20.3533 19.5165 19.9055 20.1159 19.4389C20.8476 18.8694 21.5003 18.3886 22.4566 18.3478C23.8347 18.289 25.236 18.6379 26.4594 19.2637C27.1798 19.6322 27.8517 20.0767 28.2968 20.7675C28.5719 21.1946 28.7523 21.6676 28.9809 22.1188C29.1736 22.4991 29.415 22.854 29.5943 23.241C29.9601 24.0303 29.9895 24.9913 29.8063 25.8332C29.5729 26.9061 28.5136 27.6704 27.5562 28.0777C26.6106 28.48 25.6249 28.4582 24.6247 28.3491C23.8853 28.2684 23.3169 27.9651 22.6884 27.5746C21.7994 27.0223 21.3568 26.1813 20.9357 25.2481C20.5916 24.4854 20.1457 23.6205 20.2036 22.7576C20.259 21.9321 20.7016 21.2414 21.2523 20.6488C21.9461 19.9024 22.6145 19.6816 23.6382 19.7753C24.93 19.8936 26.3821 20.2243 27.4092 21.0672C27.9605 21.5196 27.9598 22.0091 28.0933 22.6502C28.3041 23.6634 28.2007 24.6245 27.477 25.4205C26.9818 25.9653 26.4905 26.0428 25.764 26.0735C24.8038 26.1141 23.6387 26.1477 22.7421 25.7315C21.4153 25.1155 21.2571 23.2608 21.8347 22.0735C22.2367 21.247 22.8218 20.9647 23.723 21.0644C24.7513 21.1781 26.3114 21.4296 26.8608 22.4439C27.3042 23.2626 27.0269 24.3975 26.2106 24.8721C25.6707 25.186 24.9738 25.1498 24.3732 25.1322C23.6793 25.1118 22.9165 25.1165 22.5866 24.4029C22.4142 24.03 22.2117 23.4743 22.2276 23.0545C22.2392 22.7469 22.7098 22.5287 22.9371 22.4184C23.6 22.0967 24.9553 21.9391 25.4276 22.6813C25.6855 23.0867 25.9695 24.055 25.4078 24.3237C24.828 24.601 24.3433 24.6854 23.7908 24.2672C23.562 24.094 23.3519 23.8507 23.3357 23.552C23.3231 23.3191 23.5732 23.3629 23.7258 23.2552C23.8344 23.1785 23.8904 23.0585 23.9887 22.9781C24.0786 22.9046 24.3396 22.9555 24.4467 22.9555" stroke="white" stroke-width="0.15" stroke-linecap="round"/>
<path d="M26.024 11.3033C26.3019 11.3129 26.5696 11.3892 26.8381 11.4559C27.577 11.6395 28.3216 11.8159 29.0318 12.0948C29.9963 12.4735 30.7794 13.0494 31.6466 13.5958C32.0495 13.8497 32.3677 14.1948 32.7321 14.4976C33.1568 14.8505 33.5359 15.2294 33.8854 15.6566C34.5975 16.5269 35.1558 17.4207 35.6409 18.4326C36.1882 19.5741 36.7568 20.7218 37.2522 21.8869C37.5551 22.5993 37.6811 23.2988 37.6762 24.0693C37.6728 24.6077 37.4452 25.0287 37.2183 25.5053C36.6759 26.6443 36.2893 27.8443 35.7709 28.9936C35.4719 29.6568 35.0942 30.2265 34.6232 30.7802C33.9513 31.5702 33.3241 32.378 32.4975 33.0134C31.1094 34.0802 29.4409 35.3094 27.6494 35.4953C27.0318 35.5594 26.4155 35.5745 25.795 35.5745C25.3804 35.5745 24.9596 35.5829 24.5484 35.5179C24.0049 35.432 23.4987 35.1863 22.9936 34.9808C22.1223 34.6263 21.2503 34.2839 20.3703 33.9519C19.7082 33.702 18.9953 33.5091 18.4877 32.9908C18.0172 32.5104 17.633 31.9468 17.176 31.453C16.669 30.905 16.1128 30.4068 15.5958 29.8699C15.1979 29.4567 14.9162 28.926 14.6347 28.4311C14.3091 27.8587 13.9748 27.3385 13.5972 26.8C12.7252 25.5562 12.5456 24.0535 12.6022 22.5767C12.6247 21.9887 12.6429 21.3153 12.851 20.7562C13.0699 20.1678 13.5099 19.6726 13.9025 19.1958C14.2959 18.7181 14.5971 18.1042 15.0842 17.7145" stroke="white" stroke-width="0.15" stroke-linecap="round"/>
<path d="M20.6813 17.2057C22.5975 17.0689 24.3609 17.7882 26.1032 18.5061C26.9068 18.8372 27.8842 18.9267 28.6247 19.388C29.4161 19.881 29.8423 20.8804 30.1201 21.7258C30.602 23.1925 31.7782 24.7606 31.0106 26.3138C30.6586 27.026 30.085 27.5643 29.4728 28.0608C28.9366 28.4955 28.3134 28.9461 27.6099 29.0276C26.74 29.1283 25.7346 29.2468 24.865 29.1265C24.1298 29.0248 23.5893 28.6004 22.9739 28.2276C22.2112 27.7656 21.3495 27.4196 20.6191 26.9159C19.8238 26.3674 19.5699 25.6113 19.4827 24.6799C19.3776 23.5564 19.3693 21.9116 20.0227 20.9315C20.8318 19.7178 22.0584 19.7499 23.3781 19.7499" stroke="white" stroke-width="0.15" stroke-linecap="round"/>
<path d="M27.1434 20.9202C27.4693 20.9703 27.635 21.2543 27.8077 21.5025C27.958 21.7186 28.167 21.8908 28.3081 22.1103C28.4803 22.3782 28.5642 22.709 28.6699 23.0064C28.9634 23.8318 29.2169 24.8543 28.7519 25.6608C28.3105 26.4264 27.4977 26.735 26.7166 27.0459C25.9299 27.3591 25.3636 27.3165 24.571 27.0318C24.2548 26.9182 23.947 26.8383 23.6155 26.7831C23.3973 26.7467 23.1438 26.7428 22.9484 26.6247C22.2168 26.1827 21.9974 25.4283 21.7498 24.6855" stroke="white" stroke-width="0.15" stroke-linecap="round"/>
<path d="M24.1922 14.7633C24.6338 14.7265 25.055 14.6264 25.5039 14.6955C26.3067 14.819 27.1325 15.2279 27.8671 15.5662C28.9849 16.0808 30.0829 16.5241 30.807 17.5619C31.194 18.1165 31.3931 18.7777 31.6607 19.3937C31.8888 19.9186 32.1568 20.3143 32.5088 20.7619C32.9585 21.3338 33.2889 22.0636 33.5151 22.752C33.6738 23.2348 33.8872 23.724 33.9618 24.2276C34.0269 24.667 34.1442 25.145 34.0013 25.5816C33.8378 26.0814 33.4431 26.5715 33.0628 26.9216C31.9552 27.9413 30.6627 28.7479 29.6 29.8106C28.7602 30.6503 27.8896 31.126 26.6657 31.0007C25.6001 30.8915 24.4278 30.769 23.3979 30.4579C22.2882 30.1227 21.7391 29.2801 21.0375 28.4509" stroke="white" stroke-width="0.15" stroke-linecap="round"/>
<path d="M32.4862 30.4353C31.9965 31.2841 31.1106 31.876 30.3519 32.4707C29.8989 32.8257 29.4917 33.2981 28.9865 33.5788C28.4402 33.8823 27.5966 33.8296 26.9993 33.8671C26.0582 33.9263 25.243 34.0431 24.3562 33.6862C23.4255 33.3116 22.6194 32.7651 21.7725 32.2417C21.2105 31.8944 20.6605 31.537 20.0707 31.2382C19.3463 30.871 18.7369 30.5257 18.1739 29.9237C17.5755 29.2839 17.2103 28.5142 16.7944 27.7527C16.1743 26.6172 15.6822 25.4183 15.0502 24.2898C14.7635 23.7778 14.8076 23.2215 14.6941 22.6615C14.6505 22.4468 14.5591 22.2553 14.4849 22.0509C14.3364 21.6421 14.3201 21.2338 14.3435 20.8015C14.404 19.6875 14.6403 18.7273 15.511 17.9747C15.8819 17.6541 16.2945 17.3853 16.6785 17.0814C17.0999 16.7478 17.4796 16.3585 17.9223 16.0524C18.6108 15.5763 19.3376 15.318 20.1272 15.0687C20.5422 14.9376 20.9228 14.7253 21.3428 14.6107" stroke="white" stroke-width="0.15" stroke-linecap="round"/>
<path d="M22.6149 30.8424C21.1171 30.804 20.1774 29.4378 19.4036 28.3039C19.1044 27.8656 18.9211 27.3622 18.6177 26.9301C18.3943 26.6117 18.0914 26.3625 17.8262 26.082C17.4905 25.7269 17.335 25.2213 17.1421 24.7817C16.8869 24.2 16.7457 23.5994 16.622 22.9782C16.5057 22.3942 16.3184 21.7981 16.2771 21.2029C16.2138 20.2922 16.668 19.5858 17.1082 18.8284C17.426 18.2816 17.7821 17.8333 18.2954 17.4545C19.0209 16.9192 19.9607 16.4161 20.8424 16.2107C21.6991 16.0112 22.6528 16.0079 23.5279 16.0468C24.1468 16.0743 24.7636 16.141 25.3795 16.2051C25.7792 16.2466 26.2194 16.2568 26.5979 16.4114C27.5527 16.8016 28.5381 17.4359 29.3371 18.0877C29.9943 18.6239 30.4286 19.2401 30.7561 20.0043" stroke="white" stroke-width="0.15" stroke-linecap="round"/>
<path fill-rule="evenodd" clip-rule="evenodd" d="M48.4849 23.4848C48.4849 36.4552 38.3095 46.9697 25.7576 46.9697C13.2057 46.9697 3.0303 36.4552 3.0303 23.4848C3.0303 10.5145 13.2057 0 25.7576 0C38.3095 0 48.4849 10.5145 48.4849 23.4848ZM30.303 11.3637C30.303 14.2924 27.9288 16.6667 25 16.6667C22.0712 16.6667 19.697 14.2924 19.697 11.3637C19.697 8.43487 22.0712 6.06062 25 6.06062C27.9288 6.06062 30.303 8.43487 30.303 11.3637ZM25 40.9091C27.9288 40.9091 30.303 38.5349 30.303 35.6061C30.303 32.6773 27.9288 30.3031 25 30.3031C22.0712 30.3031 19.697 32.6773 19.697 35.6061C19.697 38.5349 22.0712 40.9091 25 40.9091ZM18.1818 23.4849C18.1818 26.4136 15.8076 28.7879 12.8788 28.7879C9.95001 28.7879 7.57576 26.4136 7.57576 23.4849C7.57576 20.5561 9.95001 18.1818 12.8788 18.1818C15.8076 18.1818 18.1818 20.5561 18.1818 23.4849ZM37.1212 28.7879C40.05 28.7879 42.4243 26.4136 42.4243 23.4849C42.4243 20.5561 40.05 18.1818 37.1212 18.1818C34.1924 18.1818 31.8182 20.5561 31.8182 23.4849C31.8182 26.4136 34.1924 28.7879 37.1212 28.7879Z" fill="#B08893"/>
<path fill-rule="evenodd" clip-rule="evenodd" d="M25 50C38.8071 50 50 38.8071 50 25C50 11.1929 38.8071 0 25 0C11.1929 0 0 11.1929 0 25C0 38.8071 11.1929 50 25 50ZM25.7576 46.9697C38.3095 46.9697 48.4849 36.7944 48.4849 24.2424C48.4849 11.6905 38.3095 1.51516 25.7576 1.51516C13.2057 1.51516 3.0303 11.6905 3.0303 24.2424C3.0303 36.7944 13.2057 46.9697 25.7576 46.9697Z" fill="black"/>
<circle cx="25" cy="11.3636" r="5.05303" stroke="black" stroke-width="0.5"/>
<circle cx="25" cy="35.6061" r="5.05303" stroke="black" stroke-width="0.5"/>
<circle cx="12.8788" cy="23.4848" r="5.05303" stroke="black" stroke-width="0.5"/>
<circle cx="37.1212" cy="23.4848" r="5.05303" stroke="black" stroke-width="0.5"/>
<circle cx="25" cy="23.4849" r="2.27273" fill="black"/>
</svg>
